<mxfile host="app.diagrams.net" agent="Mozilla/5.0 (Windows NT 10.0; Win64; x64) AppleWebKit/537.36 (KHTML, like Gecko) Chrome/138.0.0.0 Safari/537.36 OPR/122.0.0.0" version="28.2.4">
  <diagram name="CI/CD Deployment" id="tWoieV3spR8xJbbUmG8O">
    <mxGraphModel grid="1" page="1" gridSize="10" guides="1" tooltips="1" connect="1" arrows="1" fold="1" pageScale="1" pageWidth="827" pageHeight="1169" math="0" shadow="0">
      <root>
        <mxCell id="0" />
        <mxCell id="1" parent="0" />
        <mxCell id="CKbtqw7WAU2u2k3VBE-Y-1" value="Bài 2. Về sơ đồ triển khai CI/CD:" style="text;html=1;strokeColor=none;fillColor=none;align=left;verticalAlign=middle;whiteSpace=wrap;rounded=0;fontSize=14;fontStyle=1;" vertex="1" parent="1">
          <mxGeometry x="50" y="20" width="400" height="30" as="geometry" />
        </mxCell>
        <mxCell id="CKbtqw7WAU2u2k3VBE-Y-2" value="" style="rounded=0;whiteSpace=wrap;html=1;strokeColor=#666666;strokeWidth=2;dashed=1;dashPattern=8 8;fillColor=none;" vertex="1" parent="1">
          <mxGeometry x="50" y="70" width="900" height="400" as="geometry" />
        </mxCell>
        <mxCell id="CKbtqw7WAU2u2k3VBE-Y-3" value="Development" style="rounded=1;whiteSpace=wrap;html=1;strokeColor=#8B0000;strokeWidth=2;fillColor=#DC143C;fontColor=#FFFFFF;fontSize=14;fontStyle=1;" vertex="1" parent="1">
          <mxGeometry x="70" y="90" width="280" height="40" as="geometry" />
        </mxCell>
        <mxCell id="CKbtqw7WAU2u2k3VBE-Y-4" value="Build" style="rounded=1;whiteSpace=wrap;html=1;strokeColor=#4682B4;strokeWidth=2;fillColor=#6495ED;fontColor=#FFFFFF;fontSize=14;fontStyle=1;" vertex="1" parent="1">
          <mxGeometry x="380" y="90" width="280" height="40" as="geometry" />
        </mxCell>
        <mxCell id="CKbtqw7WAU2u2k3VBE-Y-5" value="Shift" style="rounded=1;whiteSpace=wrap;html=1;strokeColor=#6B8E23;strokeWidth=2;fillColor=#9ACD32;fontColor=#FFFFFF;fontSize=14;fontStyle=1;" vertex="1" parent="1">
          <mxGeometry x="690" y="90" width="240" height="40" as="geometry" />
        </mxCell>
        <mxCell id="CKbtqw7WAU2u2k3VBE-Y-6" value="C#" style="ellipse;whiteSpace=wrap;html=1;strokeColor=#228B22;strokeWidth=3;fillColor=#32CD32;fontColor=#FFFFFF;fontSize=20;fontStyle=1;" vertex="1" parent="1">
          <mxGeometry x="90" y="180" width="60" height="60" as="geometry" />
        </mxCell>
        <mxCell id="CKbtqw7WAU2u2k3VBE-Y-7" value="VS" style="rounded=0;whiteSpace=wrap;html=1;strokeColor=#8A2BE2;strokeWidth=2;fillColor=#9932CC;fontColor=#FFFFFF;fontSize=16;fontStyle=1;" vertex="1" parent="1">
          <mxGeometry x="90" y="280" width="60" height="60" as="geometry" />
        </mxCell>
        <mxCell id="CKbtqw7WAU2u2k3VBE-Y-8" value="🐙" style="ellipse;whiteSpace=wrap;html=1;strokeColor=#000000;strokeWidth=2;fillColor=#FFFFFF;fontSize=30;" vertex="1" parent="1">
          <mxGeometry x="220" y="200" width="60" height="60" as="geometry" />
        </mxCell>
        <mxCell id="CKbtqw7WAU2u2k3VBE-Y-9" value="📄" style="rounded=0;whiteSpace=wrap;html=1;strokeColor=#000000;strokeWidth=2;fillColor=#FFFFFF;fontSize=30;" vertex="1" parent="1">
          <mxGeometry x="220" y="320" width="60" height="60" as="geometry" />
        </mxCell>
        <mxCell id="CKbtqw7WAU2u2k3VBE-Y-10" value="Dockerfile" style="text;html=1;strokeColor=none;fillColor=none;align=center;verticalAlign=middle;whiteSpace=wrap;rounded=0;fontSize=11;fontStyle=1;" vertex="1" parent="1">
          <mxGeometry x="200" y="390" width="100" height="20" as="geometry" />
        </mxCell>
        <mxCell id="CKbtqw7WAU2u2k3VBE-Y-11" value="🏗️" style="ellipse;whiteSpace=wrap;html=1;strokeColor=#8B4513;strokeWidth=2;fillColor=#D2691E;fontSize=25;" vertex="1" parent="1">
          <mxGeometry x="420" y="180" width="50" height="50" as="geometry" />
        </mxCell>
        <mxCell id="CKbtqw7WAU2u2k3VBE-Y-12" value="Travis CI" style="text;html=1;strokeColor=none;fillColor=none;align=left;verticalAlign=middle;whiteSpace=wrap;rounded=0;fontSize=14;fontStyle=1;" vertex="1" parent="1">
          <mxGeometry x="480" y="190" width="80" height="30" as="geometry" />
        </mxCell>
        <mxCell id="CKbtqw7WAU2u2k3VBE-Y-13" value="🐳" style="ellipse;whiteSpace=wrap;html=1;strokeColor=#0066CC;strokeWidth=2;fillColor=#1E90FF;fontSize=25;" vertex="1" parent="1">
          <mxGeometry x="440" y="300" width="60" height="60" as="geometry" />
        </mxCell>
        <mxCell id="CKbtqw7WAU2u2k3VBE-Y-14" value="Docker Hub" style="text;html=1;strokeColor=none;fillColor=none;align=center;verticalAlign=middle;whiteSpace=wrap;rounded=0;fontSize=11;fontStyle=1;" vertex="1" parent="1">
          <mxGeometry x="420" y="370" width="100" height="20" as="geometry" />
        </mxCell>
        <mxCell id="CKbtqw7WAU2u2k3VBE-Y-15" value="⚙️" style="ellipse;whiteSpace=wrap;html=1;strokeColor=#326CE5;strokeWidth=3;fillColor=#4285F4;fontSize=25;" vertex="1" parent="1">
          <mxGeometry x="720" y="250" width="60" height="60" as="geometry" />
        </mxCell>
        <mxCell id="CKbtqw7WAU2u2k3VBE-Y-16" value="kubernetes" style="text;html=1;strokeColor=none;fillColor=none;align=left;verticalAlign=middle;whiteSpace=wrap;rounded=0;fontSize=14;fontStyle=1;" vertex="1" parent="1">
          <mxGeometry x="790" y="260" width="100" height="30" as="geometry" />
        </mxCell>
        <mxCell id="CKbtqw7WAU2u2k3VBE-Y-17" style="endArrow=classic;html=1;strokeColor=#000000;strokeWidth=2;" edge="1" parent="1" source="CKbtqw7WAU2u2k3VBE-Y-6" target="CKbtqw7WAU2u2k3VBE-Y-8">
          <mxGeometry width="50" height="50" relative="1" as="geometry">
            <mxPoint x="160" y="210" as="sourcePoint" />
            <mxPoint x="210" y="230" as="targetPoint" />
          </mxGeometry>
        </mxCell>
        <mxCell id="CKbtqw7WAU2u2k3VBE-Y-18" style="endArrow=classic;html=1;strokeColor=#000000;strokeWidth=2;" edge="1" parent="1" source="CKbtqw7WAU2u2k3VBE-Y-7" target="CKbtqw7WAU2u2k3VBE-Y-9">
          <mxGeometry width="50" height="50" relative="1" as="geometry">
            <mxPoint x="160" y="320" as="sourcePoint" />
            <mxPoint x="210" y="340" as="targetPoint" />
          </mxGeometry>
        </mxCell>
        <mxCell id="CKbtqw7WAU2u2k3VBE-Y-19" style="endArrow=classic;html=1;strokeColor=#000000;strokeWidth=2;" edge="1" parent="1" source="CKbtqw7WAU2u2k3VBE-Y-8" target="CKbtqw7WAU2u2k3VBE-Y-11">
          <mxGeometry width="50" height="50" relative="1" as="geometry">
            <mxPoint x="290" y="220" as="sourcePoint" />
            <mxPoint x="410" y="205" as="targetPoint" />
          </mxGeometry>
        </mxCell>
        <mxCell id="CKbtqw7WAU2u2k3VBE-Y-20" style="endArrow=classic;html=1;strokeColor=#000000;strokeWidth=2;" edge="1" parent="1" source="CKbtqw7WAU2u2k3VBE-Y-11" target="CKbtqw7WAU2u2k3VBE-Y-13">
          <mxGeometry width="50" height="50" relative="1" as="geometry">
            <mxPoint x="445" y="240" as="sourcePoint" />
            <mxPoint x="465" y="290" as="targetPoint" />
          </mxGeometry>
        </mxCell>
        <mxCell id="CKbtqw7WAU2u2k3VBE-Y-21" style="endArrow=classic;html=1;strokeColor=#000000;strokeWidth=2;" edge="1" parent="1" source="CKbtqw7WAU2u2k3VBE-Y-13" target="CKbtqw7WAU2u2k3VBE-Y-15">
          <mxGeometry width="50" height="50" relative="1" as="geometry">
            <mxPoint x="510" y="320" as="sourcePoint" />
            <mxPoint x="710" y="280" as="targetPoint" />
          </mxGeometry>
        </mxCell>
        <mxCell id="CKbtqw7WAU2u2k3VBE-Y-22" style="endArrow=classic;html=1;strokeColor=#666666;strokeWidth=1;dashed=1;dashPattern=5 5;" edge="1" parent="1" source="CKbtqw7WAU2u2k3VBE-Y-9" target="CKbtqw7WAU2u2k3VBE-Y-8">
          <mxGeometry width="50" height="50" relative="1" as="geometry">
            <mxPoint x="240" y="320" as="sourcePoint" />
            <mxPoint x="240" y="270" as="targetPoint" />
          </mxGeometry>
        </mxCell>
      </root>
    </mxGraphModel>
  </diagram>
</mxfile>
